<svg width="12" height="7" viewBox="0 0 12 7" fill="none" xmlns="http://www.w3.org/2000/svg">
<path d="M11.3371 1.67167C11.3375 1.7844 11.3126 1.89579 11.2643 1.99764C11.216 2.09949 11.1454 2.18923 11.0579 2.26025L6.53039 5.90489C6.39537 6.01587 6.22601 6.07655 6.05123 6.07655C5.87645 6.07655 5.70709 6.01587 5.57207 5.90489L1.04457 2.13197C0.890469 2.00389 0.793562 1.81984 0.775166 1.6203C0.756769 1.42077 0.81839 1.22211 0.946472 1.06801C1.07455 0.913908 1.25861 0.817001 1.45814 0.798605C1.65767 0.780209 1.85634 0.841829 2.01043 0.969911L6.055 4.3429L10.0996 1.0831C10.2103 0.990826 10.3452 0.932212 10.4882 0.914193C10.6313 0.896174 10.7765 0.919503 10.9067 0.981421C11.0368 1.04334 11.1466 1.14125 11.2228 1.26358C11.2991 1.38591 11.3388 1.52752 11.3371 1.67167Z" fill="#1F4AA8"/>
</svg>
